<?xml version="1.0" encoding="UTF-8"?><svg xmlns="http://www.w3.org/2000/svg" xmlns:xlink="http://www.w3.org/1999/xlink" fill-opacity="1" color-rendering="auto" color-interpolation="auto" text-rendering="auto" stroke="black" stroke-linecap="square" width="631" stroke-miterlimit="10" shape-rendering="auto" stroke-opacity="1" fill="black" stroke-dasharray="none" font-weight="normal" stroke-width="1" height="554" font-family="'Dialog'" font-style="normal" stroke-linejoin="miter" font-size="12px" stroke-dashoffset="0" image-rendering="auto">
  <!--Generated by ySVG 2.5-->
  <defs id="genericDefs"/>
  <g>
    <defs id="defs1">
      <clipPath clipPathUnits="userSpaceOnUse" id="clipPath1">
        <path d="M0 0 L631 0 L631 554 L0 554 L0 0 Z"/>
      </clipPath>
      <clipPath clipPathUnits="userSpaceOnUse" id="clipPath2">
        <path d="M42 44 L673 44 L673 598 L42 598 L42 44 Z"/>
      </clipPath>
    </defs>
    <g fill="white" text-rendering="geometricPrecision" shape-rendering="geometricPrecision" transform="translate(-42,-44)" stroke="white">
      <rect x="42" width="631" height="554" y="44" clip-path="url(#clipPath2)" stroke="none"/>
    </g>
    <g text-rendering="geometricPrecision" stroke-miterlimit="1.45" stroke-width="5" shape-rendering="geometricPrecision" transform="matrix(1,0,0,1,-42,-44)" stroke-linecap="butt">
      <ellipse rx="160" fill="none" ry="168" clip-path="url(#clipPath2)" cx="361" cy="227"/>
    </g>
    <g font-size="20px" stroke-linecap="butt" transform="matrix(1,0,0,1,-42,-44)" text-rendering="geometricPrecision" font-family="sans-serif" shape-rendering="geometricPrecision" font-weight="bold" stroke-miterlimit="1.45">
      <text x="323.3291" xml:space="preserve" y="222.7812" clip-path="url(#clipPath2)" stroke="none">Zmiany</text>
      <text x="304.4717" xml:space="preserve" y="246.3359" clip-path="url(#clipPath2)" stroke="none">w Aplikacji</text>
    </g>
    <g text-rendering="geometricPrecision" stroke-miterlimit="1.45" stroke-width="5" shape-rendering="geometricPrecision" transform="matrix(1,0,0,1,-42,-44)" stroke-linecap="butt">
      <ellipse rx="160" fill="none" ry="168" clip-path="url(#clipPath2)" cx="498" cy="415"/>
    </g>
    <g font-size="20px" stroke-linecap="butt" transform="matrix(1,0,0,1,-42,-44)" text-rendering="geometricPrecision" font-family="sans-serif" shape-rendering="geometricPrecision" font-weight="bold" stroke-miterlimit="1.45">
      <text x="452.4922" xml:space="preserve" y="410.7812" clip-path="url(#clipPath2)" stroke="none">Business</text>
      <text x="469.25" xml:space="preserve" y="434.3359" clip-path="url(#clipPath2)" stroke="none">i KPIs</text>
    </g>
    <g text-rendering="geometricPrecision" stroke-miterlimit="1.45" stroke-width="5" shape-rendering="geometricPrecision" transform="matrix(1,0,0,1,-42,-44)" stroke-linecap="butt">
      <ellipse rx="160" fill="none" ry="168" clip-path="url(#clipPath2)" cx="217" cy="415"/>
    </g>
    <g font-size="20px" stroke-linecap="butt" transform="matrix(1,0,0,1,-42,-44)" text-rendering="geometricPrecision" font-family="sans-serif" shape-rendering="geometricPrecision" font-weight="bold" stroke-miterlimit="1.45">
      <text x="137.4639" xml:space="preserve" y="410.7812" clip-path="url(#clipPath2)" stroke="none">Jak użytkownik</text>
      <text x="116.7949" xml:space="preserve" y="434.3359" clip-path="url(#clipPath2)" stroke="none">korzysta z aplikacji</text>
    </g>
    <g fill="rgb(255,204,0)" text-rendering="geometricPrecision" shape-rendering="geometricPrecision" transform="matrix(1,0,0,1,-42,-44)" stroke="rgb(255,204,0)">
      <path d="M358 415 L366.4957 395.8359 L384.1634 402.4055 L378.51 381.8734 L395 372 L378.51 362.1266 L384.1634 341.5945 L366.4957 348.1641 L358 329 L349.5043 348.1641 L331.8366 341.5945 L337.49 362.1266 L321 372 L337.49 381.8734 L331.8366 402.4055 L349.5043 395.8359 Z" fill-rule="evenodd" clip-path="url(#clipPath2)" stroke="none"/>
    </g>
    <g text-rendering="geometricPrecision" stroke-miterlimit="1.45" shape-rendering="geometricPrecision" transform="matrix(1,0,0,1,-42,-44)" stroke-linecap="butt">
      <path fill="none" d="M358 415 L366.4957 395.8359 L384.1634 402.4055 L378.51 381.8734 L395 372 L378.51 362.1266 L384.1634 341.5945 L366.4957 348.1641 L358 329 L349.5043 348.1641 L331.8366 341.5945 L337.49 362.1266 L321 372 L337.49 381.8734 L331.8366 402.4055 L349.5043 395.8359 Z" fill-rule="evenodd" clip-path="url(#clipPath2)"/>
    </g>
  </g>
</svg>
